<svg width="24" height="24" viewBox="0 0 24 24" fill="none" xmlns="http://www.w3.org/2000/svg">
    <path d="M23.52 12.2667C23.52 11.28 23.4399 10.56 23.2667 9.81335H12V14.2666H18.6133C18.48 15.3733 17.76 17.04 16.16 18.1599L16.1375 18.309L19.6999 21.0687L19.9467 21.0934C22.2133 19 23.52 15.92 23.52 12.2667Z" fill="#4285F4"/>
    <path d="M11.9998 23.9999C15.2398 23.9999 17.9597 22.9332 19.9465 21.0932L16.1598 18.1598C15.1465 18.8665 13.7864 19.3598 11.9998 19.3598C8.8265 19.3598 6.13319 17.2666 5.1731 14.3732L5.03237 14.3852L1.32823 17.2519L1.27979 17.3865C3.2531 21.3065 7.30644 23.9999 11.9998 23.9999Z" fill="#34A853"/>
    <path d="M5.17328 14.3734C4.91995 13.6268 4.77334 12.8267 4.77334 12.0001C4.77334 11.1734 4.91995 10.3734 5.15995 9.62674L5.15324 9.46772L1.40268 6.55499L1.27997 6.61336C0.466672 8.24005 0 10.0668 0 12.0001C0 13.9334 0.466672 15.76 1.27997 17.3867L5.17328 14.3734Z" fill="#FBBC05"/>
    <path d="M11.9998 4.63997C14.2531 4.63997 15.7731 5.6133 16.6398 6.42669L20.0264 3.12C17.9465 1.18667 15.2398 0 11.9998 0C7.30644 0 3.2531 2.69331 1.27979 6.61328L5.15977 9.62666C6.13319 6.73333 8.8265 4.63997 11.9998 4.63997Z" fill="#EB4335"/>
</svg>
