<svg width="256" height="156" viewBox="0 0 256 156" fill="none" xmlns="http://www.w3.org/2000/svg">
    <g clip-path="url(#clip0_6_5140)">
        <path d="M46.3339 29.9054L169.578 9.40368C172.379 8.93796 175.25 9.5989 177.561 11.2411C179.872 12.8833 181.433 15.3722 181.901 18.1604L197.537 111.331C198.005 114.12 197.341 116.979 195.692 119.28C194.043 121.581 191.543 123.135 188.742 123.601L60.7936 144.885C57.9931 145.351 55.1215 144.69 52.8104 143.048C50.4993 141.406 48.938 138.917 48.4701 136.129L33.6202 47.6419C32.9438 43.6114 33.9033 39.4784 36.2876 36.1521C38.6718 32.8259 42.2856 30.5789 46.3339 29.9054Z" fill="#757575"/>
        <path d="M180.287 16.7894L43.1255 39.6063C37.2938 40.5764 33.3562 46.0696 34.3306 51.8757L49.9665 145.047C50.9409 150.853 56.4583 154.773 62.29 153.803L199.452 130.986C205.283 130.016 209.221 124.523 208.247 118.717L192.611 25.5458C191.636 19.7397 186.119 15.8193 180.287 16.7894Z" fill="black"/>
        <path d="M199.515 131.364L62.3529 154.18C59.4523 154.66 56.4792 153.974 54.0859 152.273C51.6925 150.573 50.0745 147.996 49.5867 145.109L33.9509 51.9389C33.4696 49.051 34.1585 46.0909 35.8665 43.7081C37.5746 41.3252 40.1622 39.7142 43.0617 39.2285L180.223 16.4116C183.124 15.9326 186.097 16.6186 188.49 18.3192C190.884 20.0198 192.502 22.596 192.989 25.4828L208.625 118.653C209.107 121.541 208.418 124.501 206.71 126.884C205.002 129.267 202.414 130.878 199.515 131.364ZM43.1883 39.983C40.4897 40.4348 38.0814 41.934 36.4918 44.1516C34.9021 46.3693 34.2611 49.1243 34.7093 51.8119L50.3452 144.983C50.799 147.669 52.3048 150.067 54.5321 151.65C56.7595 153.232 59.5266 153.871 62.2261 153.424L199.388 130.607C202.086 130.156 204.495 128.656 206.084 126.439C207.674 124.221 208.315 121.466 207.867 118.779L192.231 25.609C191.777 22.9223 190.271 20.5245 188.044 18.9418C185.817 17.3591 183.05 16.7208 180.35 17.1669L43.1883 39.983Z" fill="#262626"/>
        <path d="M196.617 123.218L193.545 123.729L193.418 122.974L196.468 122.467L196.617 123.218ZM190.493 124.237L187.441 124.745L187.315 123.989L190.366 123.482L190.493 124.237ZM184.391 125.252L181.34 125.76L181.213 125.004L184.264 124.497L184.391 125.252ZM178.289 126.267L175.237 126.775L175.11 126.019L178.161 125.512L178.289 126.267ZM172.186 127.282L169.134 127.79L169.007 127.035L172.058 126.527L172.186 127.282ZM166.084 128.297L163.033 128.805L162.906 128.05L165.957 127.542L166.084 128.297ZM159.981 129.313L156.93 129.82L156.803 129.065L159.854 128.557L159.981 129.313ZM153.879 130.328L150.828 130.835L150.701 130.08L153.752 129.572L153.879 130.328ZM147.776 131.343L144.725 131.85L144.598 131.095L147.65 130.587L147.776 131.343ZM141.674 132.358L138.623 132.865L138.496 132.11L141.547 131.603L141.674 132.358ZM135.572 133.373L132.52 133.881L132.394 133.125L135.445 132.618L135.572 133.373ZM129.469 134.388L126.418 134.896L126.291 134.14L129.342 133.633L129.469 134.388ZM123.367 135.403L120.316 135.911L120.189 135.156L123.24 134.648L123.367 135.403ZM117.264 136.418L114.213 136.926L114.086 136.171L117.137 135.663L117.264 136.418ZM111.162 137.434L108.111 137.941L107.984 137.186L111.035 136.678L111.162 137.434ZM105.06 138.449L102.008 138.956L101.881 138.201L104.933 137.693L105.06 138.449ZM98.9571 139.464L95.906 139.971L95.7793 139.216L98.8304 138.709L98.9571 139.464ZM92.8547 140.479L89.8036 140.987L89.6768 140.231L92.7279 139.724L92.8547 140.479ZM86.7522 141.494L83.7011 142.002L83.5744 141.246L86.6255 140.739L86.7522 141.494ZM80.65 142.509L77.5987 143.017L77.4719 142.262L80.5233 141.754L80.65 142.509ZM74.5475 143.524L71.4962 144.032L71.3694 143.277L74.4208 142.769L74.5475 143.524ZM68.4451 144.54L65.394 145.047L65.2672 144.292L68.3183 143.784L68.4451 144.54ZM62.3286 145.553C61.2262 145.698 60.1054 145.522 59.1007 145.047L59.4301 144.355C60.3011 144.767 61.2731 144.92 62.2293 144.795L62.3286 145.553ZM199.553 121.789L199.034 121.224C199.746 120.576 200.257 119.739 200.505 118.811L201.248 119.008C200.962 120.077 200.374 121.043 199.553 121.789ZM56.6588 142.886C56.2546 142.242 55.9826 141.526 55.8583 140.777L55.6993 139.83L56.458 139.703L56.6169 140.651C56.7246 141.3 56.9606 141.922 57.3112 142.48L56.6588 142.886ZM201.233 115.797L200.474 115.923L199.964 112.886L200.723 112.759L201.233 115.797ZM55.9481 136.665L55.1895 136.792L54.6797 133.754L55.4383 133.628L55.9481 136.665ZM200.212 109.722L199.454 109.848L198.944 106.81L199.703 106.684L200.212 109.722ZM54.9285 130.59L54.1699 130.716L53.6601 127.678L54.4187 127.552L54.9285 130.59ZM199.193 103.646L198.434 103.772L197.924 100.734L198.683 100.608L199.193 103.646ZM53.9089 124.514L53.1503 124.641L52.6405 121.603L53.3991 121.476L53.9089 124.514ZM198.173 97.5705L197.415 97.6967L196.905 94.6587L197.663 94.5325L198.173 97.5705ZM52.8893 118.439L52.1307 118.565L51.6209 115.527L52.3795 115.401L52.8893 118.439ZM197.154 91.4946L196.395 91.6208L195.885 88.5833L196.644 88.4571L197.154 91.4946ZM51.8697 112.363L51.1111 112.489L50.6013 109.452L51.3599 109.325L51.8697 112.363ZM196.134 85.4192L195.375 85.5453L194.866 82.5071L195.624 82.3809L196.134 85.4192ZM50.8501 106.287L50.0915 106.414L49.5817 103.376L50.3403 103.25L50.8501 106.287ZM195.114 79.3435L194.356 79.4697L193.846 76.432L194.605 76.3058L195.114 79.3435ZM49.8305 100.212L49.0718 100.338L48.5621 97.3002L49.3207 97.174L49.8305 100.212ZM194.095 73.2673L193.336 73.3935L192.826 70.3563L193.585 70.2301L194.095 73.2673ZM48.8109 94.1363L48.0523 94.2625L47.5424 91.2245L48.301 91.0983L48.8109 94.1363ZM193.075 67.1924L192.317 67.3186L191.807 64.2799L192.565 64.1537L193.075 67.1924ZM47.7913 88.0606L47.0327 88.1868L46.5228 85.1488L47.2814 85.0226L47.7913 88.0606ZM192.056 61.1167L191.297 61.2429L190.787 58.2052L191.546 58.079L192.056 61.1167ZM46.7716 81.9849L46.013 82.1111L45.5032 79.0734L46.2618 78.9472L46.7716 81.9849ZM191.036 55.04L190.277 55.1662L189.768 52.1295L190.526 52.0033L191.036 55.04ZM45.752 75.9093L44.9934 76.0355L44.4836 72.9977L45.2422 72.8715L45.752 75.9093ZM190.016 48.9654L189.258 49.0916L188.748 46.0539L189.507 45.9277L190.016 48.9654ZM44.7324 69.8336L43.9738 69.9598L43.464 66.9221L44.2226 66.7959L44.7324 69.8336ZM188.997 42.8899L188.238 43.0161L187.728 39.9782L188.487 39.852L188.997 42.8899ZM43.7128 63.7582L42.9542 63.8844L42.4444 60.8464L43.203 60.7202L43.7128 63.7582ZM187.977 36.8143L187.219 36.9405L186.709 33.9025L187.467 33.7763L187.977 36.8143ZM42.6932 57.6825L41.9346 57.8087L41.4248 54.7707L42.1834 54.6445L42.6932 57.6825ZM186.958 30.7386L186.199 30.8648L186.042 29.9277C185.934 29.2751 185.697 28.6505 185.343 28.0903L185.995 27.683C186.402 28.3285 186.676 29.0483 186.801 29.8003L186.958 30.7386ZM42.1562 51.7579L41.4133 51.5595C41.7012 50.4906 42.2914 49.5265 43.1136 48.7817L43.6317 49.3474C42.9184 49.9939 42.4063 50.8304 42.1562 51.7579ZM183.22 26.2191C182.348 25.8095 181.375 25.6592 180.42 25.7861L180.318 25.0266C181.42 24.8801 182.542 25.0535 183.547 25.5262L183.22 26.2191ZM177.381 26.2885L174.331 26.7959L174.204 26.0406L177.255 25.5331L177.381 26.2885ZM171.279 27.3036L168.227 27.8112L168.101 27.0559L171.152 26.5484L171.279 27.3036ZM165.176 28.3187L162.125 28.8263L161.998 28.071L165.05 27.5634L165.176 28.3187ZM159.074 29.3339L156.023 29.8414L155.896 29.0861L158.948 28.5785L159.074 29.3339ZM152.971 30.349L149.92 30.8566L149.794 30.1013L152.845 29.5937L152.971 30.349ZM146.869 31.3642L143.818 31.8717L143.691 31.1164L146.742 30.6088L146.869 31.3642ZM140.767 32.3793L137.715 32.8869L137.589 32.1316L140.64 31.624L140.767 32.3793ZM134.664 33.3944L131.613 33.902L131.486 33.1467L134.538 32.6391L134.664 33.3944ZM128.562 34.4095L125.511 34.9171L125.384 34.1619L128.435 33.6543L128.562 34.4095ZM122.459 35.4247L119.408 35.9323L119.281 35.1771L122.332 34.6695L122.459 35.4247ZM116.357 36.4398L113.306 36.9474L113.179 36.1921L116.23 35.6846L116.357 36.4398ZM110.255 37.455L107.203 37.9625L107.077 37.2073L110.127 36.6998L110.255 37.455ZM104.152 38.4701L101.1 38.9778L100.973 38.2225L104.025 37.715L104.152 38.4701ZM98.0498 39.4852L94.9985 39.9928L94.8717 39.2375L97.9231 38.73L98.0498 39.4852ZM91.9474 40.5004L88.896 41.008L88.7693 40.2527L91.8196 39.7453L91.9474 40.5004ZM85.8449 41.5155L82.7926 42.0233L82.6658 41.268L85.7169 40.7605L85.8449 41.5155ZM79.7425 42.5307L76.6914 43.0382L76.5646 42.2829L79.6157 41.7754L79.7425 42.5307ZM73.64 43.5458L70.5889 44.0534L70.4622 43.2981L73.5133 42.7905L73.64 43.5458ZM67.5378 44.5609L64.4865 45.0685L64.3597 44.3132L67.4111 43.8056L67.5378 44.5609ZM61.4354 45.576L58.384 46.0836L58.2573 45.3284L61.3086 44.8208L61.4354 45.576ZM55.3329 46.5912L52.2818 47.0987L52.1551 46.3435L55.2062 45.8359L55.3329 46.5912ZM49.2305 47.6063L46.1897 48.1122L46.0526 47.3586L49.1037 46.8511L49.2305 47.6063Z" fill="#757575"/>
        <path d="M149.773 62.328L198.057 54.296C199.573 54.0437 201.128 54.4015 202.379 55.2906C203.631 56.1796 204.476 57.5271 204.729 59.0367L208.771 83.1224C209.024 84.6319 208.665 86.1798 207.772 87.4256C206.879 88.6713 205.526 89.5129 204.01 89.7651L155.726 97.7971C154.029 98.0794 152.289 97.679 150.889 96.6841C149.489 95.6892 148.543 94.1812 148.259 92.4919L144.445 69.7622C144.304 68.9257 144.331 68.0699 144.522 67.2436C144.714 66.4172 145.068 65.6366 145.562 64.9463C146.057 64.2559 146.684 63.6694 147.406 63.2201C148.129 62.7709 148.933 62.4677 149.773 62.328Z" fill="white"/>
        <path d="M204.073 90.143L155.789 98.1751C153.992 98.4717 152.15 98.0467 150.667 96.9932C149.185 95.9397 148.182 94.3437 147.88 92.5553L144.065 69.8256C143.767 68.0364 144.194 66.2026 145.252 64.7264C146.31 63.2502 147.913 62.2521 149.71 61.9511L197.994 53.9191C199.61 53.6521 201.267 54.0344 202.601 54.9821C203.935 55.9298 204.836 57.3656 205.108 58.9744L209.15 83.0601C209.418 84.6695 209.034 86.319 208.082 87.6468C207.13 88.9746 205.688 89.8723 204.073 90.143ZM149.836 62.7057C148.241 62.9731 146.818 63.8594 145.878 65.1704C144.938 66.4813 144.559 68.1098 144.824 69.6986L148.638 92.4276C148.907 94.0158 149.797 95.4331 151.114 96.3686C152.43 97.3042 154.066 97.6817 155.662 97.4183L203.946 89.3863C205.361 89.1493 206.623 88.3632 207.457 87.2004C208.29 86.0377 208.626 84.5932 208.391 83.184L204.349 59.0983C204.111 57.6897 203.322 56.4325 202.154 55.6027C200.986 54.7729 199.535 54.4382 198.12 54.6721L149.836 62.7057Z" fill="#262626"/>
        <path d="M165.197 86.906C170.007 86.1058 173.256 81.5745 172.452 76.785C171.648 71.9956 167.097 68.7617 162.286 69.5619C157.476 70.3622 154.228 74.8935 155.031 79.6829C155.835 84.4724 160.386 87.7063 165.197 86.906Z" fill="white"/>
        <path d="M165.26 87.2839C163.463 87.5828 161.616 87.3443 159.955 86.5984C158.293 85.8526 156.891 84.6329 155.925 83.0936C154.96 81.5544 154.475 79.7647 154.531 77.9509C154.587 76.137 155.182 74.3805 156.241 72.9035C157.3 71.4264 158.775 70.2952 160.48 69.6527C162.184 69.0103 164.042 68.8855 165.818 69.2942C167.594 69.7029 169.208 70.6267 170.457 71.9488C171.705 73.2709 172.532 74.9319 172.832 76.7218C173.232 79.1217 172.66 81.5817 171.24 83.5618C169.821 85.542 167.67 86.8806 165.26 87.2839ZM162.35 69.9396C160.702 70.2138 159.173 70.9684 157.956 72.1078C156.739 73.2472 155.889 74.7204 155.513 76.3409C155.136 77.9615 155.251 79.6567 155.843 81.2121C156.435 82.7676 157.476 84.1135 158.836 85.0796C160.196 86.0457 161.813 86.5887 163.483 86.6398C165.153 86.6909 166.8 86.2479 168.217 85.3668C169.634 84.4857 170.757 83.2061 171.443 81.6898C172.13 80.1734 172.349 78.4885 172.074 76.848C171.702 74.6491 170.47 72.6868 168.647 71.3916C166.824 70.0965 164.559 69.5743 162.35 69.9396Z" fill="#262626"/>
        <path d="M21.7593 67.0308C21.6857 67.0308 21.6128 67.0164 21.5448 66.9884C21.4768 66.9603 21.415 66.9192 21.363 66.8674C21.311 66.8156 21.2697 66.7541 21.2415 66.6864C21.2133 66.6187 21.1989 66.5461 21.1989 66.4729V50.7299C21.1989 50.5819 21.2579 50.44 21.363 50.3354C21.4681 50.2307 21.6106 50.172 21.7593 50.172C21.9079 50.172 22.0505 50.2307 22.1556 50.3354C22.2607 50.44 22.3197 50.5819 22.3197 50.7299V66.4729C22.3197 66.6208 22.2607 66.7628 22.1556 66.8674C22.0505 66.972 21.9079 67.0308 21.7593 67.0308Z" fill="#262626"/>
        <path d="M26.9185 59.1592H16.6C16.5254 59.1608 16.4513 59.1476 16.3819 59.1202C16.3125 59.0929 16.2493 59.0521 16.196 59.0001C16.1427 58.9482 16.1003 58.8861 16.0714 58.8177C16.0425 58.7492 16.0276 58.6757 16.0276 58.6014C16.0276 58.5271 16.0425 58.4536 16.0714 58.3851C16.1003 58.3166 16.1427 58.2546 16.196 58.2026C16.2493 58.1507 16.3125 58.1099 16.3819 58.0825C16.4513 58.0552 16.5254 58.042 16.6 58.0435H26.9185C27.065 58.0467 27.2045 58.1068 27.307 58.2111C27.4095 58.3154 27.467 58.4555 27.467 58.6014C27.467 58.7473 27.4095 58.8874 27.307 58.9917C27.2045 59.096 27.065 59.1561 26.9185 59.1592Z" fill="#262626"/>
        <path d="M220.232 89.4449C220.127 89.4449 220.026 89.4034 219.952 89.3297C219.878 89.2559 219.836 89.1559 219.836 89.0516V80.6077C219.835 80.5552 219.844 80.5029 219.864 80.454C219.883 80.4051 219.912 80.3606 219.949 80.3229C219.985 80.2853 220.029 80.2554 220.078 80.235C220.127 80.2146 220.179 80.2041 220.232 80.2041C220.284 80.2041 220.337 80.2146 220.385 80.235C220.434 80.2554 220.478 80.2853 220.515 80.3229C220.552 80.3606 220.58 80.4051 220.6 80.454C220.619 80.5029 220.628 80.5552 220.627 80.6077V89.0516C220.627 89.1032 220.617 89.1544 220.597 89.2021C220.577 89.2499 220.548 89.2932 220.511 89.3298C220.474 89.3663 220.431 89.3953 220.383 89.415C220.335 89.4348 220.283 89.4449 220.232 89.4449Z" fill="#262626"/>
        <path d="M222.999 85.2231H217.465C217.412 85.2244 217.359 85.2152 217.31 85.1961C217.261 85.1769 217.216 85.1481 217.179 85.1115C217.141 85.0748 217.111 85.031 217.09 84.9826C217.07 84.9342 217.059 84.8822 217.059 84.8296C217.059 84.7771 217.07 84.7251 217.09 84.6767C217.111 84.6283 217.141 84.5845 217.179 84.5478C217.216 84.5111 217.261 84.4824 217.31 84.4632C217.359 84.444 217.412 84.4348 217.465 84.4362H222.999C223.102 84.4388 223.2 84.4814 223.272 84.5549C223.344 84.6284 223.384 84.727 223.384 84.8296C223.384 84.9323 223.344 85.0309 223.272 85.1044C223.2 85.1779 223.102 85.2205 222.999 85.2231Z" fill="#262626"/>
        <path d="M213.906 17.8979C213.854 17.8979 213.803 17.8878 213.755 17.868C213.707 17.8483 213.664 17.8193 213.627 17.7828C213.59 17.7463 213.561 17.7029 213.541 17.6552C213.521 17.6074 213.511 17.5562 213.511 17.5046V9.06072C213.51 9.00821 213.519 8.95595 213.538 8.90705C213.557 8.85814 213.586 8.81356 213.623 8.77595C213.66 8.73833 213.704 8.70844 213.753 8.68803C213.801 8.66762 213.853 8.6571 213.906 8.6571C213.959 8.6571 214.011 8.66762 214.06 8.68803C214.108 8.70844 214.152 8.73833 214.189 8.77595C214.226 8.81356 214.255 8.85814 214.274 8.90705C214.294 8.95595 214.303 9.00821 214.301 9.06072V17.5046C214.301 17.6089 214.26 17.7089 214.186 17.7827C214.112 17.8565 214.011 17.8979 213.906 17.8979Z" fill="#262626"/>
        <path d="M216.674 13.6761H211.14C211.087 13.6774 211.034 13.6683 210.985 13.6491C210.936 13.6299 210.891 13.6011 210.853 13.5645C210.816 13.5278 210.786 13.484 210.765 13.4356C210.745 13.3872 210.734 13.3352 210.734 13.2826C210.734 13.2301 210.745 13.1781 210.765 13.1297C210.786 13.0813 210.816 13.0375 210.853 13.0008C210.891 12.9641 210.936 12.9354 210.985 12.9162C211.034 12.897 211.087 12.8878 211.14 12.8892H216.674C216.777 12.8918 216.875 12.9344 216.947 13.0079C217.019 13.0814 217.059 13.18 217.059 13.2826C217.059 13.3853 217.019 13.4839 216.947 13.5574C216.875 13.6309 216.777 13.6735 216.674 13.6761H216.674Z" fill="#262626"/>
        <path d="M24.789 143.776C24.7407 143.776 24.6929 143.766 24.6483 143.748C24.6037 143.729 24.5632 143.702 24.5291 143.668C24.4949 143.633 24.4679 143.593 24.4494 143.548C24.431 143.503 24.4215 143.455 24.4215 143.406V132.984C24.4201 132.935 24.4285 132.885 24.4464 132.839C24.4642 132.793 24.491 132.751 24.5253 132.716C24.5596 132.68 24.6006 132.652 24.6459 132.633C24.6912 132.614 24.7399 132.604 24.7891 132.604C24.8383 132.604 24.887 132.614 24.9324 132.633C24.9777 132.652 25.0187 132.68 25.053 132.716C25.0872 132.751 25.1141 132.793 25.1319 132.839C25.1497 132.885 25.1582 132.935 25.1567 132.984V143.406C25.1568 143.455 25.1473 143.503 25.1288 143.548C25.1104 143.593 25.0833 143.633 25.0491 143.668C25.015 143.702 24.9744 143.729 24.9298 143.748C24.8851 143.766 24.8373 143.776 24.789 143.776Z" fill="#262626"/>
        <path d="M28.1742 138.565H21.4039C21.3063 138.565 21.2128 138.526 21.1438 138.457C21.0749 138.387 21.0361 138.293 21.0361 138.195C21.0361 138.097 21.0749 138.003 21.1438 137.934C21.2128 137.865 21.3063 137.826 21.4039 137.826H28.1742C28.2717 137.826 28.3653 137.865 28.4342 137.934C28.5032 138.003 28.542 138.097 28.542 138.195C28.542 138.293 28.5032 138.387 28.4342 138.457C28.3653 138.526 28.2717 138.565 28.1742 138.565Z" fill="#262626"/>
        <path d="M5.51631 106.311C5.41878 106.311 5.32524 106.272 5.25627 106.203C5.18731 106.134 5.14856 106.04 5.14856 105.942V90.088C5.14856 89.99 5.18731 89.8961 5.25627 89.8268C5.32524 89.7575 5.41878 89.7186 5.51631 89.7186C5.61385 89.7186 5.70737 89.7575 5.77634 89.8268C5.84531 89.8961 5.88405 89.99 5.88405 90.088V105.942C5.88397 106.04 5.84521 106.134 5.77626 106.203C5.70731 106.272 5.61382 106.311 5.51631 106.311Z" fill="#262626"/>
        <path d="M10.6666 98.3844H0.367736C0.270203 98.3844 0.176659 98.3455 0.107692 98.2762C0.0387262 98.2069 0 98.1129 0 98.015C0 97.917 0.0387262 97.823 0.107692 97.7537C0.176659 97.6844 0.270203 97.6455 0.367736 97.6455H10.6666C10.7641 97.6455 10.8577 97.6844 10.9267 97.7537C10.9956 97.823 11.0344 97.917 11.0344 98.015C11.0344 98.1129 10.9956 98.2069 10.9267 98.2762C10.8577 98.3455 10.7641 98.3844 10.6666 98.3844Z" fill="#262626"/>
        <path d="M28.5163 16.5928C28.4188 16.5928 28.3252 16.5539 28.2563 16.4846C28.1873 16.4153 28.1486 16.3213 28.1486 16.2234V0.369435C28.1486 0.271454 28.1873 0.17749 28.2563 0.108207C28.3252 0.0389235 28.4188 0 28.5163 0C28.6138 0 28.7074 0.0389235 28.7763 0.108207C28.8453 0.17749 28.8841 0.271454 28.8841 0.369435V16.2234C28.884 16.3213 28.8452 16.4152 28.7763 16.4845C28.7073 16.5538 28.6138 16.5927 28.5163 16.5928Z" fill="#262626"/>
        <path d="M33.6666 8.66583H23.3677C23.2702 8.66583 23.1767 8.6269 23.1077 8.55762C23.0387 8.48834 23 8.39437 23 8.29639C23 8.19841 23.0387 8.10444 23.1077 8.03516C23.1767 7.96587 23.2702 7.92695 23.3677 7.92695H33.6666C33.7641 7.92695 33.8577 7.96587 33.9267 8.03516C33.9956 8.10444 34.0344 8.19841 34.0344 8.29639C34.0344 8.39437 33.9956 8.48834 33.9267 8.55762C33.8577 8.6269 33.7641 8.66583 33.6666 8.66583Z" fill="#262626"/>
        <path d="M238.918 137.419C238.82 137.419 238.727 137.38 238.658 137.31C238.589 137.241 238.55 137.147 238.55 137.049V121.195C238.55 121.097 238.589 121.003 238.658 120.934C238.727 120.865 238.82 120.826 238.918 120.826C239.015 120.826 239.109 120.865 239.178 120.934C239.247 121.003 239.285 121.097 239.285 121.195V137.049C239.285 137.147 239.247 137.241 239.178 137.31C239.109 137.38 239.015 137.419 238.918 137.419Z" fill="#262626"/>
        <path d="M244.068 129.492H233.769C233.672 129.492 233.578 129.453 233.509 129.384C233.44 129.314 233.401 129.22 233.401 129.122C233.401 129.024 233.44 128.93 233.509 128.861C233.578 128.792 233.672 128.753 233.769 128.753H244.068C244.166 128.753 244.259 128.792 244.328 128.861C244.397 128.93 244.436 129.024 244.436 129.122C244.436 129.22 244.397 129.314 244.328 129.384C244.259 129.453 244.166 129.492 244.068 129.492Z" fill="#262626"/>
        <path d="M253.057 14.6089C253.009 14.609 252.961 14.5994 252.917 14.5809C252.872 14.5623 252.831 14.5351 252.797 14.5008C252.763 14.4665 252.736 14.4258 252.718 14.3809C252.699 14.3361 252.69 14.288 252.69 14.2395V6.31252C252.69 6.21454 252.728 6.12057 252.797 6.05129C252.866 5.98201 252.96 5.94308 253.057 5.94308C253.155 5.94308 253.249 5.98201 253.317 6.05129C253.386 6.12057 253.425 6.21454 253.425 6.31252V14.2395C253.425 14.288 253.416 14.3361 253.397 14.3809C253.379 14.4258 253.352 14.4665 253.318 14.5008C253.283 14.5351 253.243 14.5623 253.198 14.5809C253.154 14.5994 253.106 14.609 253.057 14.6089Z" fill="#262626"/>
        <path d="M255.632 10.6456H250.483C250.435 10.6456 250.387 10.636 250.342 10.6175C250.298 10.5989 250.257 10.5717 250.223 10.5374C250.189 10.5031 250.162 10.4624 250.143 10.4175C250.125 10.3727 250.115 10.3247 250.115 10.2762C250.115 10.2277 250.125 10.1796 250.143 10.1348C250.162 10.09 250.189 10.0492 250.223 10.0149C250.257 9.98063 250.298 9.95341 250.342 9.93485C250.387 9.91628 250.435 9.90673 250.483 9.90673H255.632C255.73 9.90673 255.823 9.94565 255.892 10.0149C255.961 10.0842 256 10.1782 256 10.2762C256 10.3741 255.961 10.4681 255.892 10.5374C255.823 10.6067 255.73 10.6456 255.632 10.6456Z" fill="#262626"/>
    </g>
    <defs>
        <clipPath id="clip0_6_5140">
            <rect width="256" height="156" fill="white"/>
        </clipPath>
    </defs>
</svg>
