<svg width="32" height="33" viewBox="0 0 32 33" fill="none" xmlns="http://www.w3.org/2000/svg">
    <path d="M31.8873 30.1889L25.2325 23.6018C27.123 21.0549 28.1456 17.9409 28.1456 14.6656C28.1456 10.745 26.6773 7.06881 24.0222 4.29701C21.3672 1.52522 17.8302 0 14.0728 0C10.3154 0 6.77839 1.53011 4.12333 4.29701C1.46357 7.06392 0 10.745 0 14.6656C0 18.5813 1.46826 22.2672 4.12333 25.0341C6.77839 27.8059 10.3107 29.3312 14.0728 29.3312C17.2157 29.3312 20.1991 28.2655 22.6431 26.3003L29.2979 32.8825C29.3336 32.9198 29.376 32.9493 29.4227 32.9695C29.4694 32.9896 29.5194 33 29.5699 33C29.6205 33 29.6705 32.9896 29.7172 32.9695C29.7639 32.9493 29.8063 32.9198 29.842 32.8825L30.8646 31.8193L31.8873 30.756C31.923 30.7188 31.9513 30.6746 31.9707 30.6259C31.99 30.5773 32 30.5251 32 30.4725C32 30.4198 31.99 30.3677 31.9707 30.319C31.9513 30.2704 31.923 30.2262 31.8873 30.1889ZM21.5032 22.409C19.5143 24.4769 16.878 25.6159 14.0728 25.6159C11.2676 25.6159 8.63131 24.4769 6.64236 22.409C4.65809 20.3363 3.56511 17.5889 3.56511 14.6656C3.56511 11.7422 4.65809 8.99 6.64236 6.92215C8.63131 4.85431 11.2676 3.71528 14.0728 3.71528C16.878 3.71528 19.519 4.84942 21.5032 6.92215C23.4875 8.99489 24.5805 11.7422 24.5805 14.6656C24.5805 17.5889 23.4875 20.3412 21.5032 22.409Z" fill="black"/>
</svg>
